# xmcd
#
# Track frame offsets: 
#        150
#        17163
#        35443
#        55835
#        78332
#        96572
#        113232
#        133470
#        151765
#        168930
#        184307
#        201839
#        228279
#        245874
#        262994
#
# Disc length: 3746 seconds
#
# Revision: 4
# Processed by: cddbd v1.5.2PL0 Copyright (c) Steve Scherf et al.
# Submitted via: ExactAudioCopy v1.3
#
DISCID=ce0ea00f
DTITLE=Hot Chocolate featuring Errol Brown - Hottest Hits
DYEAR=2009
DGENRE=Pop
TTITLE0=You sexy thing
TTITLE1=It started with a kiss
TTITLE2=So you win again
TTITLE3=Brother Louie
TTITLE4=Everyone's a winner
TTITLE5=I gave you my heart (didn't I)
TTITLE6=No doubt about it
TTITLE7=Chances
TTITLE8=You could've been a lady
TTITLE9=Girl crazy
TTITLE10=I'll put you together again
TTITLE11=Are you getting enough happiness
TTITLE12=Emma
TTITLE13=What kinda boy you looking for (girl)
TTITLE14=Heaven is in the back seat of my Cadillac
EXTD=Location:  - UPC:  - Catalogue number: UPHC001 - Label: EMI - ASIN: 
EXTD=Release Date: 2009 01 29 - Discogs: a59556,r1625007 - MUSICBRAINZ
EXTD=_ALBUMID: c3b408e4-525a-448e-bec2-34052a7d8a39 - AMG: ;
EXTT0=
EXTT1=
EXTT2=
EXTT3=
EXTT4=
EXTT5=
EXTT6=
EXTT7=
EXTT8=
EXTT9=
EXTT10=
EXTT11=
EXTT12=
EXTT13=
EXTT14=
PLAYORDER=
